<?xml version="1.0" standalone="no"?><!DOCTYPE svg PUBLIC "-//W3C//DTD SVG 1.1//EN" "http://www.w3.org/Graphics/SVG/1.1/DTD/svg11.dtd"><svg t="1556245039438" class="icon" style="" viewBox="0 0 1024 1024" version="1.1" xmlns="http://www.w3.org/2000/svg" p-id="5650" xmlns:xlink="http://www.w3.org/1999/xlink" width="64" height="64"><defs><style type="text/css"></style></defs><path d="M759.39456 737.5936c-15.488 0-30.94656-2.0672-45.94944-6.14016a23.05536 23.05536 0 0 0-24.02432 7.79904c-46.1568 57.4336-114.81728 90.3744-188.3648 90.3744-72.1536 0-139.97184-31.88736-186.07104-87.47648a23.0464 23.0464 0 0 0-17.7536-8.34048c-1.25568 0-2.52928 0.09728-3.80416 0.31104-9.72288 1.62944-19.50464 2.45376-29.056 2.45376-96.35456 0-174.7392-78.33088-174.7392-174.62016 0-91.97056 71.88224-168.49792 163.65568-174.22848a23.04512 23.04512 0 0 0 20.75648-16.74496C303.22688 267.48672 398.8096 195.20512 506.47424 195.20512c107.94624 0 203.58784 72.5184 232.59776 176.35328 2.75456 9.88416 11.72352 16.75008 21.98912 16.84864 95.43296 0.88704 173.06752 79.2064 173.06752 174.57408 0 96.27776-78.38336 174.61376-174.7328 174.61376m19.09504-394.44992C738.92736 228.10496 629.39648 149.12384 506.47424 149.12384c-122.8992 0-232.56832 79.0784-272.07552 194.19776C126.14144 358.02112 43.52128 451.12064 43.52128 561.95456 43.52 683.65184 142.592 782.65472 264.3712 782.65472c7.80928 0 15.712-0.43264 23.62624-1.28512 54.54976 60.11136 131.4688 94.33728 213.056 94.33728 82.68416 0 160.16384-34.94016 214.81728-96.3648a220.99072 220.99072 0 0 0 43.52256 4.33152c121.77536 0 220.8448-99.00288 220.8448-220.69376 0-114.82624-89.04064-210.09024-201.74848-219.83616" fill="#cdcdcd" p-id="5651"></path><path d="M511.8848 660.08832c-14.624 0-26.48064 11.84768-26.48064 26.46144 0 14.61248 11.85664 26.45504 26.47936 26.45504 14.624 0 26.47936-11.84256 26.47936-26.45504 0-14.61376-11.85536-26.46144-26.47936-26.46144M511.8848 340.76672c-39.5584 0-75.81952 19.95776-97.01376 53.3952-11.60832 18.32192-17.7408 39.5136-17.7408 61.28 0 12.7232 10.3232 23.04 23.05536 23.04 12.73216 0 23.05536-10.3168 23.05536-23.04 0-13.02912 3.66592-25.69472 10.58816-36.6272 12.68736-20.02176 34.38848-31.968 58.0544-31.968 37.84576 0 68.64256 30.77504 68.64256 68.5952 0 37.82656-30.7968 68.5952-68.64256 68.5952-12.73216 0-23.05536 10.3168-23.05536 23.04v67.19744c0 12.7232 10.3232 23.04 23.05536 23.04 12.73344 0 23.05664-10.3168 23.05664-23.04v-46.4832c52.26112-10.69696 91.69792-57.00736 91.69792-112.34944 0-63.22688-51.47776-114.6752-114.75456-114.6752" fill="#cdcdcd" p-id="5652"></path></svg>